<?xml version="1.0" encoding="utf-8" standalone="no"?>
<!DOCTYPE svg PUBLIC "-//W3C//DTD SVG 1.1//EN"
  "http://www.w3.org/Graphics/SVG/1.1/DTD/svg11.dtd">
<svg xmlns:xlink="http://www.w3.org/1999/xlink" width="1008pt" height="576pt" viewBox="0 0 1008 576" xmlns="http://www.w3.org/2000/svg" version="1.1">
 <metadata>
  <rdf:RDF xmlns:dc="http://purl.org/dc/elements/1.1/" xmlns:cc="http://creativecommons.org/ns#" xmlns:rdf="http://www.w3.org/1999/02/22-rdf-syntax-ns#">
   <cc:Work>
    <dc:type rdf:resource="http://purl.org/dc/dcmitype/StillImage"/>
    <dc:date>2025-07-29T16:59:28.531749</dc:date>
    <dc:format>image/svg+xml</dc:format>
    <dc:creator>
     <cc:Agent>
      <dc:title>Matplotlib v3.9.2, https://matplotlib.org/</dc:title>
     </cc:Agent>
    </dc:creator>
   </cc:Work>
  </rdf:RDF>
 </metadata>
 <defs>
  <style type="text/css">*{stroke-linejoin: round; stroke-linecap: butt}</style>
 </defs>
 <g id="figure_1">
  <g id="patch_1">
   <path d="M 0 576 
L 1008 576 
L 1008 0 
L 0 0 
z
" style="fill: #ffffff"/>
  </g>
  <g id="axes_1">
   <g id="patch_2">
    <path d="M 81.29 518.2 
L 995.04 518.2 
L 995.04 47.67625 
L 81.29 47.67625 
z
" style="fill: #ffffff"/>
   </g>
   <g id="matplotlib.axis_1">
    <g id="xtick_1">
     <g id="line2d_1">
      <path d="M 92.711875 518.2 
L 92.711875 47.67625 
" clip-path="url(#p5e7f8b3a88)" style="fill: none; stroke: #ffffff; stroke-linecap: round"/>
     </g>
     <g id="line2d_2"/>
     <g id="text_1">
      <!-- 0 -->
      <g style="fill: #262626" transform="translate(89.931406 532.357813) scale(0.1 -0.1)">
       <defs>
        <path id="Arial-BoldMT-30" d="M 1756 4600 
Q 2422 4600 2797 4125 
Q 3244 3563 3244 2259 
Q 3244 959 2794 391 
Q 2422 -78 1756 -78 
Q 1088 -78 678 436 
Q 269 950 269 2269 
Q 269 3563 719 4131 
Q 1091 4600 1756 4600 
z
M 1756 3872 
Q 1597 3872 1472 3770 
Q 1347 3669 1278 3406 
Q 1188 3066 1188 2259 
Q 1188 1453 1269 1151 
Q 1350 850 1473 750 
Q 1597 650 1756 650 
Q 1916 650 2041 751 
Q 2166 853 2234 1116 
Q 2325 1453 2325 2259 
Q 2325 3066 2244 3367 
Q 2163 3669 2039 3770 
Q 1916 3872 1756 3872 
z
" transform="scale(0.015625)"/>
       </defs>
       <use xlink:href="#Arial-BoldMT-30"/>
      </g>
     </g>
    </g>
    <g id="xtick_2">
     <g id="line2d_3">
      <path d="M 115.555625 518.2 
L 115.555625 47.67625 
" clip-path="url(#p5e7f8b3a88)" style="fill: none; stroke: #ffffff; stroke-linecap: round"/>
     </g>
     <g id="line2d_4"/>
     <g id="text_2">
      <!-- 1 -->
      <g style="fill: #262626" transform="translate(112.775156 532.357813) scale(0.1 -0.1)">
       <defs>
        <path id="Arial-BoldMT-31" d="M 2519 0 
L 1641 0 
L 1641 3309 
Q 1159 2859 506 2644 
L 506 3441 
Q 850 3553 1253 3867 
Q 1656 4181 1806 4600 
L 2519 4600 
L 2519 0 
z
" transform="scale(0.015625)"/>
       </defs>
       <use xlink:href="#Arial-BoldMT-31"/>
      </g>
     </g>
    </g>
    <g id="xtick_3">
     <g id="line2d_5">
      <path d="M 138.399375 518.2 
L 138.399375 47.67625 
" clip-path="url(#p5e7f8b3a88)" style="fill: none; stroke: #ffffff; stroke-linecap: round"/>
     </g>
     <g id="line2d_6"/>
     <g id="text_3">
      <!-- 2 -->
      <g style="fill: #262626" transform="translate(135.618906 532.357813) scale(0.1 -0.1)">
       <defs>
        <path id="Arial-BoldMT-32" d="M 3238 816 
L 3238 0 
L 159 0 
Q 209 463 459 877 
Q 709 1291 1447 1975 
Q 2041 2528 2175 2725 
Q 2356 2997 2356 3263 
Q 2356 3556 2198 3714 
Q 2041 3872 1763 3872 
Q 1488 3872 1325 3706 
Q 1163 3541 1138 3156 
L 263 3244 
Q 341 3969 753 4284 
Q 1166 4600 1784 4600 
Q 2463 4600 2850 4234 
Q 3238 3869 3238 3325 
Q 3238 3016 3127 2736 
Q 3016 2456 2775 2150 
Q 2616 1947 2200 1565 
Q 1784 1184 1673 1059 
Q 1563 934 1494 816 
L 3238 816 
z
" transform="scale(0.015625)"/>
       </defs>
       <use xlink:href="#Arial-BoldMT-32"/>
      </g>
     </g>
    </g>
    <g id="xtick_4">
     <g id="line2d_7">
      <path d="M 161.243125 518.2 
L 161.243125 47.67625 
" clip-path="url(#p5e7f8b3a88)" style="fill: none; stroke: #ffffff; stroke-linecap: round"/>
     </g>
     <g id="line2d_8"/>
     <g id="text_4">
      <!-- 3 -->
      <g style="fill: #262626" transform="translate(158.462656 532.357813) scale(0.1 -0.1)">
       <defs>
        <path id="Arial-BoldMT-33" d="M 241 1216 
L 1091 1319 
Q 1131 994 1309 822 
Q 1488 650 1741 650 
Q 2013 650 2198 856 
Q 2384 1063 2384 1413 
Q 2384 1744 2206 1937 
Q 2028 2131 1772 2131 
Q 1603 2131 1369 2066 
L 1466 2781 
Q 1822 2772 2009 2936 
Q 2197 3100 2197 3372 
Q 2197 3603 2059 3740 
Q 1922 3878 1694 3878 
Q 1469 3878 1309 3722 
Q 1150 3566 1116 3266 
L 306 3403 
Q 391 3819 561 4067 
Q 731 4316 1036 4458 
Q 1341 4600 1719 4600 
Q 2366 4600 2756 4188 
Q 3078 3850 3078 3425 
Q 3078 2822 2419 2463 
Q 2813 2378 3048 2084 
Q 3284 1791 3284 1375 
Q 3284 772 2843 347 
Q 2403 -78 1747 -78 
Q 1125 -78 715 280 
Q 306 638 241 1216 
z
" transform="scale(0.015625)"/>
       </defs>
       <use xlink:href="#Arial-BoldMT-33"/>
      </g>
     </g>
    </g>
    <g id="xtick_5">
     <g id="line2d_9">
      <path d="M 184.086875 518.2 
L 184.086875 47.67625 
" clip-path="url(#p5e7f8b3a88)" style="fill: none; stroke: #ffffff; stroke-linecap: round"/>
     </g>
     <g id="line2d_10"/>
     <g id="text_5">
      <!-- 4 -->
      <g style="fill: #262626" transform="translate(181.306406 532.357813) scale(0.1 -0.1)">
       <defs>
        <path id="Arial-BoldMT-34" d="M 1994 0 
L 1994 922 
L 119 922 
L 119 1691 
L 2106 4600 
L 2844 4600 
L 2844 1694 
L 3413 1694 
L 3413 922 
L 2844 922 
L 2844 0 
L 1994 0 
z
M 1994 1694 
L 1994 3259 
L 941 1694 
L 1994 1694 
z
" transform="scale(0.015625)"/>
       </defs>
       <use xlink:href="#Arial-BoldMT-34"/>
      </g>
     </g>
    </g>
    <g id="xtick_6">
     <g id="line2d_11">
      <path d="M 206.930625 518.2 
L 206.930625 47.67625 
" clip-path="url(#p5e7f8b3a88)" style="fill: none; stroke: #ffffff; stroke-linecap: round"/>
     </g>
     <g id="line2d_12"/>
     <g id="text_6">
      <!-- 5 -->
      <g style="fill: #262626" transform="translate(204.150156 532.357813) scale(0.1 -0.1)">
       <defs>
        <path id="Arial-BoldMT-35" d="M 284 1178 
L 1159 1269 
Q 1197 972 1381 798 
Q 1566 625 1806 625 
Q 2081 625 2272 848 
Q 2463 1072 2463 1522 
Q 2463 1944 2273 2155 
Q 2084 2366 1781 2366 
Q 1403 2366 1103 2031 
L 391 2134 
L 841 4519 
L 3163 4519 
L 3163 3697 
L 1506 3697 
L 1369 2919 
Q 1663 3066 1969 3066 
Q 2553 3066 2959 2641 
Q 3366 2216 3366 1538 
Q 3366 972 3038 528 
Q 2591 -78 1797 -78 
Q 1163 -78 763 262 
Q 363 603 284 1178 
z
" transform="scale(0.015625)"/>
       </defs>
       <use xlink:href="#Arial-BoldMT-35"/>
      </g>
     </g>
    </g>
    <g id="xtick_7">
     <g id="line2d_13">
      <path d="M 229.774375 518.2 
L 229.774375 47.67625 
" clip-path="url(#p5e7f8b3a88)" style="fill: none; stroke: #ffffff; stroke-linecap: round"/>
     </g>
     <g id="line2d_14"/>
     <g id="text_7">
      <!-- 6 -->
      <g style="fill: #262626" transform="translate(226.993906 532.357813) scale(0.1 -0.1)">
       <defs>
        <path id="Arial-BoldMT-36" d="M 3247 3459 
L 2397 3366 
Q 2366 3628 2234 3753 
Q 2103 3878 1894 3878 
Q 1616 3878 1423 3628 
Q 1231 3378 1181 2588 
Q 1509 2975 1997 2975 
Q 2547 2975 2939 2556 
Q 3331 2138 3331 1475 
Q 3331 772 2918 347 
Q 2506 -78 1859 -78 
Q 1166 -78 719 461 
Q 272 1000 272 2228 
Q 272 3488 737 4044 
Q 1203 4600 1947 4600 
Q 2469 4600 2811 4308 
Q 3153 4016 3247 3459 
z
M 1256 1544 
Q 1256 1116 1453 883 
Q 1650 650 1903 650 
Q 2147 650 2309 840 
Q 2472 1031 2472 1466 
Q 2472 1913 2297 2120 
Q 2122 2328 1859 2328 
Q 1606 2328 1431 2129 
Q 1256 1931 1256 1544 
z
" transform="scale(0.015625)"/>
       </defs>
       <use xlink:href="#Arial-BoldMT-36"/>
      </g>
     </g>
    </g>
    <g id="xtick_8">
     <g id="line2d_15">
      <path d="M 252.618125 518.2 
L 252.618125 47.67625 
" clip-path="url(#p5e7f8b3a88)" style="fill: none; stroke: #ffffff; stroke-linecap: round"/>
     </g>
     <g id="line2d_16"/>
     <g id="text_8">
      <!-- 7 -->
      <g style="fill: #262626" transform="translate(249.837656 532.357813) scale(0.1 -0.1)">
       <defs>
        <path id="Arial-BoldMT-37" d="M 272 3703 
L 272 4519 
L 3275 4519 
L 3275 3881 
Q 2903 3516 2518 2831 
Q 2134 2147 1932 1376 
Q 1731 606 1734 0 
L 888 0 
Q 909 950 1279 1937 
Q 1650 2925 2269 3703 
L 272 3703 
z
" transform="scale(0.015625)"/>
       </defs>
       <use xlink:href="#Arial-BoldMT-37"/>
      </g>
     </g>
    </g>
    <g id="xtick_9">
     <g id="line2d_17">
      <path d="M 275.461875 518.2 
L 275.461875 47.67625 
" clip-path="url(#p5e7f8b3a88)" style="fill: none; stroke: #ffffff; stroke-linecap: round"/>
     </g>
     <g id="line2d_18"/>
     <g id="text_9">
      <!-- 8 -->
      <g style="fill: #262626" transform="translate(272.681406 532.357813) scale(0.1 -0.1)">
       <defs>
        <path id="Arial-BoldMT-38" d="M 1025 2472 
Q 684 2616 529 2867 
Q 375 3119 375 3419 
Q 375 3931 733 4265 
Q 1091 4600 1750 4600 
Q 2403 4600 2764 4265 
Q 3125 3931 3125 3419 
Q 3125 3100 2959 2851 
Q 2794 2603 2494 2472 
Q 2875 2319 3073 2025 
Q 3272 1731 3272 1347 
Q 3272 713 2867 316 
Q 2463 -81 1791 -81 
Q 1166 -81 750 247 
Q 259 634 259 1309 
Q 259 1681 443 1992 
Q 628 2303 1025 2472 
z
M 1206 3356 
Q 1206 3094 1354 2947 
Q 1503 2800 1750 2800 
Q 2000 2800 2150 2948 
Q 2300 3097 2300 3359 
Q 2300 3606 2151 3754 
Q 2003 3903 1759 3903 
Q 1506 3903 1356 3753 
Q 1206 3603 1206 3356 
z
M 1125 1394 
Q 1125 1031 1311 828 
Q 1497 625 1775 625 
Q 2047 625 2225 820 
Q 2403 1016 2403 1384 
Q 2403 1706 2222 1901 
Q 2041 2097 1763 2097 
Q 1441 2097 1283 1875 
Q 1125 1653 1125 1394 
z
" transform="scale(0.015625)"/>
       </defs>
       <use xlink:href="#Arial-BoldMT-38"/>
      </g>
     </g>
    </g>
    <g id="xtick_10">
     <g id="line2d_19">
      <path d="M 298.305625 518.2 
L 298.305625 47.67625 
" clip-path="url(#p5e7f8b3a88)" style="fill: none; stroke: #ffffff; stroke-linecap: round"/>
     </g>
     <g id="line2d_20"/>
     <g id="text_10">
      <!-- 9 -->
      <g style="fill: #262626" transform="translate(295.525156 532.357813) scale(0.1 -0.1)">
       <defs>
        <path id="Arial-BoldMT-39" d="M 291 1059 
L 1141 1153 
Q 1172 894 1303 769 
Q 1434 644 1650 644 
Q 1922 644 2112 894 
Q 2303 1144 2356 1931 
Q 2025 1547 1528 1547 
Q 988 1547 595 1964 
Q 203 2381 203 3050 
Q 203 3747 617 4173 
Q 1031 4600 1672 4600 
Q 2369 4600 2816 4061 
Q 3263 3522 3263 2288 
Q 3263 1031 2797 475 
Q 2331 -81 1584 -81 
Q 1047 -81 715 205 
Q 384 491 291 1059 
z
M 2278 2978 
Q 2278 3403 2083 3637 
Q 1888 3872 1631 3872 
Q 1388 3872 1227 3680 
Q 1066 3488 1066 3050 
Q 1066 2606 1241 2398 
Q 1416 2191 1678 2191 
Q 1931 2191 2104 2391 
Q 2278 2591 2278 2978 
z
" transform="scale(0.015625)"/>
       </defs>
       <use xlink:href="#Arial-BoldMT-39"/>
      </g>
     </g>
    </g>
    <g id="xtick_11">
     <g id="line2d_21">
      <path d="M 321.149375 518.2 
L 321.149375 47.67625 
" clip-path="url(#p5e7f8b3a88)" style="fill: none; stroke: #ffffff; stroke-linecap: round"/>
     </g>
     <g id="line2d_22"/>
     <g id="text_11">
      <!-- 10 -->
      <g style="fill: #262626" transform="translate(315.588437 532.357813) scale(0.1 -0.1)">
       <use xlink:href="#Arial-BoldMT-31"/>
       <use xlink:href="#Arial-BoldMT-30" x="55.615234"/>
      </g>
     </g>
    </g>
    <g id="xtick_12">
     <g id="line2d_23">
      <path d="M 343.993125 518.2 
L 343.993125 47.67625 
" clip-path="url(#p5e7f8b3a88)" style="fill: none; stroke: #ffffff; stroke-linecap: round"/>
     </g>
     <g id="line2d_24"/>
     <g id="text_12">
      <!-- 11 -->
      <g style="fill: #262626" transform="translate(338.707188 532.357813) scale(0.1 -0.1)">
       <use xlink:href="#Arial-BoldMT-31"/>
       <use xlink:href="#Arial-BoldMT-31" x="50.115234"/>
      </g>
     </g>
    </g>
    <g id="xtick_13">
     <g id="line2d_25">
      <path d="M 366.836875 518.2 
L 366.836875 47.67625 
" clip-path="url(#p5e7f8b3a88)" style="fill: none; stroke: #ffffff; stroke-linecap: round"/>
     </g>
     <g id="line2d_26"/>
     <g id="text_13">
      <!-- 12 -->
      <g style="fill: #262626" transform="translate(361.275937 532.357813) scale(0.1 -0.1)">
       <use xlink:href="#Arial-BoldMT-31"/>
       <use xlink:href="#Arial-BoldMT-32" x="55.615234"/>
      </g>
     </g>
    </g>
    <g id="xtick_14">
     <g id="line2d_27">
      <path d="M 389.680625 518.2 
L 389.680625 47.67625 
" clip-path="url(#p5e7f8b3a88)" style="fill: none; stroke: #ffffff; stroke-linecap: round"/>
     </g>
     <g id="line2d_28"/>
     <g id="text_14">
      <!-- 13 -->
      <g style="fill: #262626" transform="translate(384.119687 532.357813) scale(0.1 -0.1)">
       <use xlink:href="#Arial-BoldMT-31"/>
       <use xlink:href="#Arial-BoldMT-33" x="55.615234"/>
      </g>
     </g>
    </g>
    <g id="xtick_15">
     <g id="line2d_29">
      <path d="M 412.524375 518.2 
L 412.524375 47.67625 
" clip-path="url(#p5e7f8b3a88)" style="fill: none; stroke: #ffffff; stroke-linecap: round"/>
     </g>
     <g id="line2d_30"/>
     <g id="text_15">
      <!-- 14 -->
      <g style="fill: #262626" transform="translate(406.963437 532.357813) scale(0.1 -0.1)">
       <use xlink:href="#Arial-BoldMT-31"/>
       <use xlink:href="#Arial-BoldMT-34" x="55.615234"/>
      </g>
     </g>
    </g>
    <g id="xtick_16">
     <g id="line2d_31">
      <path d="M 435.368125 518.2 
L 435.368125 47.67625 
" clip-path="url(#p5e7f8b3a88)" style="fill: none; stroke: #ffffff; stroke-linecap: round"/>
     </g>
     <g id="line2d_32"/>
     <g id="text_16">
      <!-- 15 -->
      <g style="fill: #262626" transform="translate(429.807187 532.357813) scale(0.1 -0.1)">
       <use xlink:href="#Arial-BoldMT-31"/>
       <use xlink:href="#Arial-BoldMT-35" x="55.615234"/>
      </g>
     </g>
    </g>
    <g id="xtick_17">
     <g id="line2d_33">
      <path d="M 458.211875 518.2 
L 458.211875 47.67625 
" clip-path="url(#p5e7f8b3a88)" style="fill: none; stroke: #ffffff; stroke-linecap: round"/>
     </g>
     <g id="line2d_34"/>
     <g id="text_17">
      <!-- 16 -->
      <g style="fill: #262626" transform="translate(452.650937 532.357813) scale(0.1 -0.1)">
       <use xlink:href="#Arial-BoldMT-31"/>
       <use xlink:href="#Arial-BoldMT-36" x="55.615234"/>
      </g>
     </g>
    </g>
    <g id="xtick_18">
     <g id="line2d_35">
      <path d="M 481.055625 518.2 
L 481.055625 47.67625 
" clip-path="url(#p5e7f8b3a88)" style="fill: none; stroke: #ffffff; stroke-linecap: round"/>
     </g>
     <g id="line2d_36"/>
     <g id="text_18">
      <!-- 17 -->
      <g style="fill: #262626" transform="translate(475.494687 532.357813) scale(0.1 -0.1)">
       <use xlink:href="#Arial-BoldMT-31"/>
       <use xlink:href="#Arial-BoldMT-37" x="55.615234"/>
      </g>
     </g>
    </g>
    <g id="xtick_19">
     <g id="line2d_37">
      <path d="M 503.899375 518.2 
L 503.899375 47.67625 
" clip-path="url(#p5e7f8b3a88)" style="fill: none; stroke: #ffffff; stroke-linecap: round"/>
     </g>
     <g id="line2d_38"/>
     <g id="text_19">
      <!-- 18 -->
      <g style="fill: #262626" transform="translate(498.338437 532.357813) scale(0.1 -0.1)">
       <use xlink:href="#Arial-BoldMT-31"/>
       <use xlink:href="#Arial-BoldMT-38" x="55.615234"/>
      </g>
     </g>
    </g>
    <g id="xtick_20">
     <g id="line2d_39">
      <path d="M 526.743125 518.2 
L 526.743125 47.67625 
" clip-path="url(#p5e7f8b3a88)" style="fill: none; stroke: #ffffff; stroke-linecap: round"/>
     </g>
     <g id="line2d_40"/>
     <g id="text_20">
      <!-- 19 -->
      <g style="fill: #262626" transform="translate(521.182187 532.357813) scale(0.1 -0.1)">
       <use xlink:href="#Arial-BoldMT-31"/>
       <use xlink:href="#Arial-BoldMT-39" x="55.615234"/>
      </g>
     </g>
    </g>
    <g id="xtick_21">
     <g id="line2d_41">
      <path d="M 549.586875 518.2 
L 549.586875 47.67625 
" clip-path="url(#p5e7f8b3a88)" style="fill: none; stroke: #ffffff; stroke-linecap: round"/>
     </g>
     <g id="line2d_42"/>
     <g id="text_21">
      <!-- 20 -->
      <g style="fill: #262626" transform="translate(544.025937 532.357813) scale(0.1 -0.1)">
       <use xlink:href="#Arial-BoldMT-32"/>
       <use xlink:href="#Arial-BoldMT-30" x="55.615234"/>
      </g>
     </g>
    </g>
    <g id="xtick_22">
     <g id="line2d_43">
      <path d="M 572.430625 518.2 
L 572.430625 47.67625 
" clip-path="url(#p5e7f8b3a88)" style="fill: none; stroke: #ffffff; stroke-linecap: round"/>
     </g>
     <g id="line2d_44"/>
     <g id="text_22">
      <!-- 21 -->
      <g style="fill: #262626" transform="translate(566.869687 532.357813) scale(0.1 -0.1)">
       <use xlink:href="#Arial-BoldMT-32"/>
       <use xlink:href="#Arial-BoldMT-31" x="55.615234"/>
      </g>
     </g>
    </g>
    <g id="xtick_23">
     <g id="line2d_45">
      <path d="M 595.274375 518.2 
L 595.274375 47.67625 
" clip-path="url(#p5e7f8b3a88)" style="fill: none; stroke: #ffffff; stroke-linecap: round"/>
     </g>
     <g id="line2d_46"/>
     <g id="text_23">
      <!-- 22 -->
      <g style="fill: #262626" transform="translate(589.713437 532.357813) scale(0.1 -0.1)">
       <use xlink:href="#Arial-BoldMT-32"/>
       <use xlink:href="#Arial-BoldMT-32" x="55.615234"/>
      </g>
     </g>
    </g>
    <g id="xtick_24">
     <g id="line2d_47">
      <path d="M 618.118125 518.2 
L 618.118125 47.67625 
" clip-path="url(#p5e7f8b3a88)" style="fill: none; stroke: #ffffff; stroke-linecap: round"/>
     </g>
     <g id="line2d_48"/>
     <g id="text_24">
      <!-- 23 -->
      <g style="fill: #262626" transform="translate(612.557187 532.357813) scale(0.1 -0.1)">
       <use xlink:href="#Arial-BoldMT-32"/>
       <use xlink:href="#Arial-BoldMT-33" x="55.615234"/>
      </g>
     </g>
    </g>
    <g id="xtick_25">
     <g id="line2d_49">
      <path d="M 640.961875 518.2 
L 640.961875 47.67625 
" clip-path="url(#p5e7f8b3a88)" style="fill: none; stroke: #ffffff; stroke-linecap: round"/>
     </g>
     <g id="line2d_50"/>
     <g id="text_25">
      <!-- 24 -->
      <g style="fill: #262626" transform="translate(635.400937 532.357813) scale(0.1 -0.1)">
       <use xlink:href="#Arial-BoldMT-32"/>
       <use xlink:href="#Arial-BoldMT-34" x="55.615234"/>
      </g>
     </g>
    </g>
    <g id="xtick_26">
     <g id="line2d_51">
      <path d="M 663.805625 518.2 
L 663.805625 47.67625 
" clip-path="url(#p5e7f8b3a88)" style="fill: none; stroke: #ffffff; stroke-linecap: round"/>
     </g>
     <g id="line2d_52"/>
     <g id="text_26">
      <!-- 25 -->
      <g style="fill: #262626" transform="translate(658.244687 532.357813) scale(0.1 -0.1)">
       <use xlink:href="#Arial-BoldMT-32"/>
       <use xlink:href="#Arial-BoldMT-35" x="55.615234"/>
      </g>
     </g>
    </g>
    <g id="xtick_27">
     <g id="line2d_53">
      <path d="M 686.649375 518.2 
L 686.649375 47.67625 
" clip-path="url(#p5e7f8b3a88)" style="fill: none; stroke: #ffffff; stroke-linecap: round"/>
     </g>
     <g id="line2d_54"/>
     <g id="text_27">
      <!-- 26 -->
      <g style="fill: #262626" transform="translate(681.088437 532.357813) scale(0.1 -0.1)">
       <use xlink:href="#Arial-BoldMT-32"/>
       <use xlink:href="#Arial-BoldMT-36" x="55.615234"/>
      </g>
     </g>
    </g>
    <g id="xtick_28">
     <g id="line2d_55">
      <path d="M 709.493125 518.2 
L 709.493125 47.67625 
" clip-path="url(#p5e7f8b3a88)" style="fill: none; stroke: #ffffff; stroke-linecap: round"/>
     </g>
     <g id="line2d_56"/>
     <g id="text_28">
      <!-- 27 -->
      <g style="fill: #262626" transform="translate(703.932187 532.357813) scale(0.1 -0.1)">
       <use xlink:href="#Arial-BoldMT-32"/>
       <use xlink:href="#Arial-BoldMT-37" x="55.615234"/>
      </g>
     </g>
    </g>
    <g id="xtick_29">
     <g id="line2d_57">
      <path d="M 732.336875 518.2 
L 732.336875 47.67625 
" clip-path="url(#p5e7f8b3a88)" style="fill: none; stroke: #ffffff; stroke-linecap: round"/>
     </g>
     <g id="line2d_58"/>
     <g id="text_29">
      <!-- 28 -->
      <g style="fill: #262626" transform="translate(726.775937 532.357813) scale(0.1 -0.1)">
       <use xlink:href="#Arial-BoldMT-32"/>
       <use xlink:href="#Arial-BoldMT-38" x="55.615234"/>
      </g>
     </g>
    </g>
    <g id="xtick_30">
     <g id="line2d_59">
      <path d="M 755.180625 518.2 
L 755.180625 47.67625 
" clip-path="url(#p5e7f8b3a88)" style="fill: none; stroke: #ffffff; stroke-linecap: round"/>
     </g>
     <g id="line2d_60"/>
     <g id="text_30">
      <!-- 29 -->
      <g style="fill: #262626" transform="translate(749.619687 532.357813) scale(0.1 -0.1)">
       <use xlink:href="#Arial-BoldMT-32"/>
       <use xlink:href="#Arial-BoldMT-39" x="55.615234"/>
      </g>
     </g>
    </g>
    <g id="xtick_31">
     <g id="line2d_61">
      <path d="M 778.024375 518.2 
L 778.024375 47.67625 
" clip-path="url(#p5e7f8b3a88)" style="fill: none; stroke: #ffffff; stroke-linecap: round"/>
     </g>
     <g id="line2d_62"/>
     <g id="text_31">
      <!-- 30 -->
      <g style="fill: #262626" transform="translate(772.463437 532.357813) scale(0.1 -0.1)">
       <use xlink:href="#Arial-BoldMT-33"/>
       <use xlink:href="#Arial-BoldMT-30" x="55.615234"/>
      </g>
     </g>
    </g>
    <g id="xtick_32">
     <g id="line2d_63">
      <path d="M 800.868125 518.2 
L 800.868125 47.67625 
" clip-path="url(#p5e7f8b3a88)" style="fill: none; stroke: #ffffff; stroke-linecap: round"/>
     </g>
     <g id="line2d_64"/>
     <g id="text_32">
      <!-- 31 -->
      <g style="fill: #262626" transform="translate(795.307187 532.357813) scale(0.1 -0.1)">
       <use xlink:href="#Arial-BoldMT-33"/>
       <use xlink:href="#Arial-BoldMT-31" x="55.615234"/>
      </g>
     </g>
    </g>
    <g id="xtick_33">
     <g id="line2d_65">
      <path d="M 823.711875 518.2 
L 823.711875 47.67625 
" clip-path="url(#p5e7f8b3a88)" style="fill: none; stroke: #ffffff; stroke-linecap: round"/>
     </g>
     <g id="line2d_66"/>
     <g id="text_33">
      <!-- 32 -->
      <g style="fill: #262626" transform="translate(818.150937 532.357813) scale(0.1 -0.1)">
       <use xlink:href="#Arial-BoldMT-33"/>
       <use xlink:href="#Arial-BoldMT-32" x="55.615234"/>
      </g>
     </g>
    </g>
    <g id="xtick_34">
     <g id="line2d_67">
      <path d="M 846.555625 518.2 
L 846.555625 47.67625 
" clip-path="url(#p5e7f8b3a88)" style="fill: none; stroke: #ffffff; stroke-linecap: round"/>
     </g>
     <g id="line2d_68"/>
     <g id="text_34">
      <!-- 33 -->
      <g style="fill: #262626" transform="translate(840.994687 532.357813) scale(0.1 -0.1)">
       <use xlink:href="#Arial-BoldMT-33"/>
       <use xlink:href="#Arial-BoldMT-33" x="55.615234"/>
      </g>
     </g>
    </g>
    <g id="xtick_35">
     <g id="line2d_69">
      <path d="M 869.399375 518.2 
L 869.399375 47.67625 
" clip-path="url(#p5e7f8b3a88)" style="fill: none; stroke: #ffffff; stroke-linecap: round"/>
     </g>
     <g id="line2d_70"/>
     <g id="text_35">
      <!-- 34 -->
      <g style="fill: #262626" transform="translate(863.838437 532.357813) scale(0.1 -0.1)">
       <use xlink:href="#Arial-BoldMT-33"/>
       <use xlink:href="#Arial-BoldMT-34" x="55.615234"/>
      </g>
     </g>
    </g>
    <g id="xtick_36">
     <g id="line2d_71">
      <path d="M 892.243125 518.2 
L 892.243125 47.67625 
" clip-path="url(#p5e7f8b3a88)" style="fill: none; stroke: #ffffff; stroke-linecap: round"/>
     </g>
     <g id="line2d_72"/>
     <g id="text_36">
      <!-- 35 -->
      <g style="fill: #262626" transform="translate(886.682187 532.357813) scale(0.1 -0.1)">
       <use xlink:href="#Arial-BoldMT-33"/>
       <use xlink:href="#Arial-BoldMT-35" x="55.615234"/>
      </g>
     </g>
    </g>
    <g id="xtick_37">
     <g id="line2d_73">
      <path d="M 915.086875 518.2 
L 915.086875 47.67625 
" clip-path="url(#p5e7f8b3a88)" style="fill: none; stroke: #ffffff; stroke-linecap: round"/>
     </g>
     <g id="line2d_74"/>
     <g id="text_37">
      <!-- 36 -->
      <g style="fill: #262626" transform="translate(909.525937 532.357813) scale(0.1 -0.1)">
       <use xlink:href="#Arial-BoldMT-33"/>
       <use xlink:href="#Arial-BoldMT-36" x="55.615234"/>
      </g>
     </g>
    </g>
    <g id="xtick_38">
     <g id="line2d_75">
      <path d="M 937.930625 518.2 
L 937.930625 47.67625 
" clip-path="url(#p5e7f8b3a88)" style="fill: none; stroke: #ffffff; stroke-linecap: round"/>
     </g>
     <g id="line2d_76"/>
     <g id="text_38">
      <!-- 37 -->
      <g style="fill: #262626" transform="translate(932.369687 532.357813) scale(0.1 -0.1)">
       <use xlink:href="#Arial-BoldMT-33"/>
       <use xlink:href="#Arial-BoldMT-37" x="55.615234"/>
      </g>
     </g>
    </g>
    <g id="xtick_39">
     <g id="line2d_77">
      <path d="M 960.774375 518.2 
L 960.774375 47.67625 
" clip-path="url(#p5e7f8b3a88)" style="fill: none; stroke: #ffffff; stroke-linecap: round"/>
     </g>
     <g id="line2d_78"/>
     <g id="text_39">
      <!-- 38 -->
      <g style="fill: #262626" transform="translate(955.213437 532.357813) scale(0.1 -0.1)">
       <use xlink:href="#Arial-BoldMT-33"/>
       <use xlink:href="#Arial-BoldMT-38" x="55.615234"/>
      </g>
     </g>
    </g>
    <g id="xtick_40">
     <g id="line2d_79">
      <path d="M 983.618125 518.2 
L 983.618125 47.67625 
" clip-path="url(#p5e7f8b3a88)" style="fill: none; stroke: #ffffff; stroke-linecap: round"/>
     </g>
     <g id="line2d_80"/>
     <g id="text_40">
      <!-- 39+ -->
      <g style="fill: #262626" transform="translate(975.136875 532.357813) scale(0.1 -0.1)">
       <defs>
        <path id="Arial-BoldMT-2b" d="M 1466 659 
L 1466 1850 
L 266 1850 
L 266 2672 
L 1466 2672 
L 1466 3863 
L 2266 3863 
L 2266 2672 
L 3469 2672 
L 3469 1850 
L 2266 1850 
L 2266 659 
L 1466 659 
z
" transform="scale(0.015625)"/>
       </defs>
       <use xlink:href="#Arial-BoldMT-33"/>
       <use xlink:href="#Arial-BoldMT-39" x="55.615234"/>
       <use xlink:href="#Arial-BoldMT-2b" x="111.230469"/>
      </g>
     </g>
    </g>
    <g id="text_41">
     <!-- Késés (perc) -->
     <g style="fill: #262626" transform="translate(464.479375 557.258438) scale(0.26 -0.26)">
      <defs>
       <path id="ArialMT-4b" d="M 469 0 
L 469 4581 
L 1075 4581 
L 1075 2309 
L 3350 4581 
L 4172 4581 
L 2250 2725 
L 4256 0 
L 3456 0 
L 1825 2319 
L 1075 1588 
L 1075 0 
L 469 0 
z
" transform="scale(0.015625)"/>
       <path id="ArialMT-e9" d="M 2694 1069 
L 3275 997 
Q 3138 488 2766 206 
Q 2394 -75 1816 -75 
Q 1088 -75 661 373 
Q 234 822 234 1631 
Q 234 2469 665 2931 
Q 1097 3394 1784 3394 
Q 2450 3394 2872 2941 
Q 3294 2488 3294 1666 
Q 3294 1616 3291 1516 
L 816 1516 
Q 847 969 1125 678 
Q 1403 388 1819 388 
Q 2128 388 2347 550 
Q 2566 713 2694 1069 
z
M 847 1978 
L 2700 1978 
Q 2663 2397 2488 2606 
Q 2219 2931 1791 2931 
Q 1403 2931 1139 2672 
Q 875 2413 847 1978 
z
M 1454 3731 
L 1869 4606 
L 2607 4606 
L 1919 3731 
L 1454 3731 
z
" transform="scale(0.015625)"/>
       <path id="ArialMT-73" d="M 197 991 
L 753 1078 
Q 800 744 1014 566 
Q 1228 388 1613 388 
Q 2000 388 2187 545 
Q 2375 703 2375 916 
Q 2375 1106 2209 1216 
Q 2094 1291 1634 1406 
Q 1016 1563 777 1677 
Q 538 1791 414 1992 
Q 291 2194 291 2438 
Q 291 2659 392 2848 
Q 494 3038 669 3163 
Q 800 3259 1026 3326 
Q 1253 3394 1513 3394 
Q 1903 3394 2198 3281 
Q 2494 3169 2634 2976 
Q 2775 2784 2828 2463 
L 2278 2388 
Q 2241 2644 2061 2787 
Q 1881 2931 1553 2931 
Q 1166 2931 1000 2803 
Q 834 2675 834 2503 
Q 834 2394 903 2306 
Q 972 2216 1119 2156 
Q 1203 2125 1616 2013 
Q 2213 1853 2448 1751 
Q 2684 1650 2818 1456 
Q 2953 1263 2953 975 
Q 2953 694 2789 445 
Q 2625 197 2315 61 
Q 2006 -75 1616 -75 
Q 969 -75 630 194 
Q 291 463 197 991 
z
" transform="scale(0.015625)"/>
       <path id="ArialMT-20" transform="scale(0.015625)"/>
       <path id="ArialMT-28" d="M 1497 -1347 
Q 1031 -759 709 28 
Q 388 816 388 1659 
Q 388 2403 628 3084 
Q 909 3875 1497 4659 
L 1900 4659 
Q 1522 4009 1400 3731 
Q 1209 3300 1100 2831 
Q 966 2247 966 1656 
Q 966 153 1900 -1347 
L 1497 -1347 
z
" transform="scale(0.015625)"/>
       <path id="ArialMT-70" d="M 422 -1272 
L 422 3319 
L 934 3319 
L 934 2888 
Q 1116 3141 1344 3267 
Q 1572 3394 1897 3394 
Q 2322 3394 2647 3175 
Q 2972 2956 3137 2557 
Q 3303 2159 3303 1684 
Q 3303 1175 3120 767 
Q 2938 359 2589 142 
Q 2241 -75 1856 -75 
Q 1575 -75 1351 44 
Q 1128 163 984 344 
L 984 -1272 
L 422 -1272 
z
M 931 1641 
Q 931 1000 1190 694 
Q 1450 388 1819 388 
Q 2194 388 2461 705 
Q 2728 1022 2728 1688 
Q 2728 2322 2467 2637 
Q 2206 2953 1844 2953 
Q 1484 2953 1207 2617 
Q 931 2281 931 1641 
z
" transform="scale(0.015625)"/>
       <path id="ArialMT-65" d="M 2694 1069 
L 3275 997 
Q 3138 488 2766 206 
Q 2394 -75 1816 -75 
Q 1088 -75 661 373 
Q 234 822 234 1631 
Q 234 2469 665 2931 
Q 1097 3394 1784 3394 
Q 2450 3394 2872 2941 
Q 3294 2488 3294 1666 
Q 3294 1616 3291 1516 
L 816 1516 
Q 847 969 1125 678 
Q 1403 388 1819 388 
Q 2128 388 2347 550 
Q 2566 713 2694 1069 
z
M 847 1978 
L 2700 1978 
Q 2663 2397 2488 2606 
Q 2219 2931 1791 2931 
Q 1403 2931 1139 2672 
Q 875 2413 847 1978 
z
" transform="scale(0.015625)"/>
       <path id="ArialMT-72" d="M 416 0 
L 416 3319 
L 922 3319 
L 922 2816 
Q 1116 3169 1280 3281 
Q 1444 3394 1641 3394 
Q 1925 3394 2219 3213 
L 2025 2691 
Q 1819 2813 1613 2813 
Q 1428 2813 1281 2702 
Q 1134 2591 1072 2394 
Q 978 2094 978 1738 
L 978 0 
L 416 0 
z
" transform="scale(0.015625)"/>
       <path id="ArialMT-63" d="M 2588 1216 
L 3141 1144 
Q 3050 572 2676 248 
Q 2303 -75 1759 -75 
Q 1078 -75 664 370 
Q 250 816 250 1647 
Q 250 2184 428 2587 
Q 606 2991 970 3192 
Q 1334 3394 1763 3394 
Q 2303 3394 2647 3120 
Q 2991 2847 3088 2344 
L 2541 2259 
Q 2463 2594 2264 2762 
Q 2066 2931 1784 2931 
Q 1359 2931 1093 2626 
Q 828 2322 828 1663 
Q 828 994 1084 691 
Q 1341 388 1753 388 
Q 2084 388 2306 591 
Q 2528 794 2588 1216 
z
" transform="scale(0.015625)"/>
       <path id="ArialMT-29" d="M 791 -1347 
L 388 -1347 
Q 1322 153 1322 1656 
Q 1322 2244 1188 2822 
Q 1081 3291 891 3722 
Q 769 4003 388 4659 
L 791 4659 
Q 1378 3875 1659 3084 
Q 1900 2403 1900 1659 
Q 1900 816 1576 28 
Q 1253 -759 791 -1347 
z
" transform="scale(0.015625)"/>
      </defs>
      <use xlink:href="#ArialMT-4b"/>
      <use xlink:href="#ArialMT-e9" x="66.699219"/>
      <use xlink:href="#ArialMT-73" x="122.314453"/>
      <use xlink:href="#ArialMT-e9" x="172.314453"/>
      <use xlink:href="#ArialMT-73" x="227.929688"/>
      <use xlink:href="#ArialMT-20" x="277.929688"/>
      <use xlink:href="#ArialMT-28" x="305.712891"/>
      <use xlink:href="#ArialMT-70" x="339.013672"/>
      <use xlink:href="#ArialMT-65" x="394.628906"/>
      <use xlink:href="#ArialMT-72" x="450.244141"/>
      <use xlink:href="#ArialMT-63" x="483.544922"/>
      <use xlink:href="#ArialMT-29" x="533.544922"/>
     </g>
    </g>
   </g>
   <g id="matplotlib.axis_2">
    <g id="ytick_1">
     <g id="line2d_81">
      <path d="M 81.29 518.2 
L 995.04 518.2 
" clip-path="url(#p5e7f8b3a88)" style="fill: none; stroke-dasharray: 3.7,1.6; stroke-dashoffset: 0; stroke: #808080; stroke-opacity: 0.5"/>
     </g>
     <g id="line2d_82"/>
     <g id="text_42">
      <!-- 0 -->
      <g style="fill: #262626" transform="translate(65.948594 523.568359) scale(0.15 -0.15)">
       <use xlink:href="#Arial-BoldMT-30"/>
      </g>
     </g>
    </g>
    <g id="ytick_2">
     <g id="line2d_83">
      <path d="M 81.29 455.244415 
L 995.04 455.244415 
" clip-path="url(#p5e7f8b3a88)" style="fill: none; stroke-dasharray: 3.7,1.6; stroke-dashoffset: 0; stroke: #808080; stroke-opacity: 0.5"/>
     </g>
     <g id="line2d_84"/>
     <g id="text_43">
      <!-- 1000 -->
      <g style="fill: #262626" transform="translate(40.924375 460.612774) scale(0.15 -0.15)">
       <use xlink:href="#Arial-BoldMT-31"/>
       <use xlink:href="#Arial-BoldMT-30" x="55.615234"/>
       <use xlink:href="#Arial-BoldMT-30" x="111.230469"/>
       <use xlink:href="#Arial-BoldMT-30" x="166.845703"/>
      </g>
     </g>
    </g>
    <g id="ytick_3">
     <g id="line2d_85">
      <path d="M 81.29 392.288829 
L 995.04 392.288829 
" clip-path="url(#p5e7f8b3a88)" style="fill: none; stroke-dasharray: 3.7,1.6; stroke-dashoffset: 0; stroke: #808080; stroke-opacity: 0.5"/>
     </g>
     <g id="line2d_86"/>
     <g id="text_44">
      <!-- 2000 -->
      <g style="fill: #262626" transform="translate(40.924375 397.657189) scale(0.15 -0.15)">
       <use xlink:href="#Arial-BoldMT-32"/>
       <use xlink:href="#Arial-BoldMT-30" x="55.615234"/>
       <use xlink:href="#Arial-BoldMT-30" x="111.230469"/>
       <use xlink:href="#Arial-BoldMT-30" x="166.845703"/>
      </g>
     </g>
    </g>
    <g id="ytick_4">
     <g id="line2d_87">
      <path d="M 81.29 329.333244 
L 995.04 329.333244 
" clip-path="url(#p5e7f8b3a88)" style="fill: none; stroke-dasharray: 3.7,1.6; stroke-dashoffset: 0; stroke: #808080; stroke-opacity: 0.5"/>
     </g>
     <g id="line2d_88"/>
     <g id="text_45">
      <!-- 3000 -->
      <g style="fill: #262626" transform="translate(40.924375 334.701603) scale(0.15 -0.15)">
       <use xlink:href="#Arial-BoldMT-33"/>
       <use xlink:href="#Arial-BoldMT-30" x="55.615234"/>
       <use xlink:href="#Arial-BoldMT-30" x="111.230469"/>
       <use xlink:href="#Arial-BoldMT-30" x="166.845703"/>
      </g>
     </g>
    </g>
    <g id="ytick_5">
     <g id="line2d_89">
      <path d="M 81.29 266.377658 
L 995.04 266.377658 
" clip-path="url(#p5e7f8b3a88)" style="fill: none; stroke-dasharray: 3.7,1.6; stroke-dashoffset: 0; stroke: #808080; stroke-opacity: 0.5"/>
     </g>
     <g id="line2d_90"/>
     <g id="text_46">
      <!-- 4000 -->
      <g style="fill: #262626" transform="translate(40.924375 271.746018) scale(0.15 -0.15)">
       <use xlink:href="#Arial-BoldMT-34"/>
       <use xlink:href="#Arial-BoldMT-30" x="55.615234"/>
       <use xlink:href="#Arial-BoldMT-30" x="111.230469"/>
       <use xlink:href="#Arial-BoldMT-30" x="166.845703"/>
      </g>
     </g>
    </g>
    <g id="ytick_6">
     <g id="line2d_91">
      <path d="M 81.29 203.422073 
L 995.04 203.422073 
" clip-path="url(#p5e7f8b3a88)" style="fill: none; stroke-dasharray: 3.7,1.6; stroke-dashoffset: 0; stroke: #808080; stroke-opacity: 0.5"/>
     </g>
     <g id="line2d_92"/>
     <g id="text_47">
      <!-- 5000 -->
      <g style="fill: #262626" transform="translate(40.924375 208.790432) scale(0.15 -0.15)">
       <use xlink:href="#Arial-BoldMT-35"/>
       <use xlink:href="#Arial-BoldMT-30" x="55.615234"/>
       <use xlink:href="#Arial-BoldMT-30" x="111.230469"/>
       <use xlink:href="#Arial-BoldMT-30" x="166.845703"/>
      </g>
     </g>
    </g>
    <g id="ytick_7">
     <g id="line2d_93">
      <path d="M 81.29 140.466487 
L 995.04 140.466487 
" clip-path="url(#p5e7f8b3a88)" style="fill: none; stroke-dasharray: 3.7,1.6; stroke-dashoffset: 0; stroke: #808080; stroke-opacity: 0.5"/>
     </g>
     <g id="line2d_94"/>
     <g id="text_48">
      <!-- 6000 -->
      <g style="fill: #262626" transform="translate(40.924375 145.834847) scale(0.15 -0.15)">
       <use xlink:href="#Arial-BoldMT-36"/>
       <use xlink:href="#Arial-BoldMT-30" x="55.615234"/>
       <use xlink:href="#Arial-BoldMT-30" x="111.230469"/>
       <use xlink:href="#Arial-BoldMT-30" x="166.845703"/>
      </g>
     </g>
    </g>
    <g id="ytick_8">
     <g id="line2d_95">
      <path d="M 81.29 77.510902 
L 995.04 77.510902 
" clip-path="url(#p5e7f8b3a88)" style="fill: none; stroke-dasharray: 3.7,1.6; stroke-dashoffset: 0; stroke: #808080; stroke-opacity: 0.5"/>
     </g>
     <g id="line2d_96"/>
     <g id="text_49">
      <!-- 7000 -->
      <g style="fill: #262626" transform="translate(40.924375 82.879261) scale(0.15 -0.15)">
       <use xlink:href="#Arial-BoldMT-37"/>
       <use xlink:href="#Arial-BoldMT-30" x="55.615234"/>
       <use xlink:href="#Arial-BoldMT-30" x="111.230469"/>
       <use xlink:href="#Arial-BoldMT-30" x="166.845703"/>
      </g>
     </g>
    </g>
    <g id="text_50">
     <!-- Vonatok száma -->
     <g style="fill: #262626" transform="translate(31.756875 371.821562) rotate(-90) scale(0.26 -0.26)">
      <defs>
       <path id="ArialMT-56" d="M 1803 0 
L 28 4581 
L 684 4581 
L 1875 1253 
Q 2019 853 2116 503 
Q 2222 878 2363 1253 
L 3600 4581 
L 4219 4581 
L 2425 0 
L 1803 0 
z
" transform="scale(0.015625)"/>
       <path id="ArialMT-6f" d="M 213 1659 
Q 213 2581 725 3025 
Q 1153 3394 1769 3394 
Q 2453 3394 2887 2945 
Q 3322 2497 3322 1706 
Q 3322 1066 3130 698 
Q 2938 331 2570 128 
Q 2203 -75 1769 -75 
Q 1072 -75 642 372 
Q 213 819 213 1659 
z
M 791 1659 
Q 791 1022 1069 705 
Q 1347 388 1769 388 
Q 2188 388 2466 706 
Q 2744 1025 2744 1678 
Q 2744 2294 2464 2611 
Q 2184 2928 1769 2928 
Q 1347 2928 1069 2612 
Q 791 2297 791 1659 
z
" transform="scale(0.015625)"/>
       <path id="ArialMT-6e" d="M 422 0 
L 422 3319 
L 928 3319 
L 928 2847 
Q 1294 3394 1984 3394 
Q 2284 3394 2536 3286 
Q 2788 3178 2913 3003 
Q 3038 2828 3088 2588 
Q 3119 2431 3119 2041 
L 3119 0 
L 2556 0 
L 2556 2019 
Q 2556 2363 2490 2533 
Q 2425 2703 2258 2804 
Q 2091 2906 1866 2906 
Q 1506 2906 1245 2678 
Q 984 2450 984 1813 
L 984 0 
L 422 0 
z
" transform="scale(0.015625)"/>
       <path id="ArialMT-61" d="M 2588 409 
Q 2275 144 1986 34 
Q 1697 -75 1366 -75 
Q 819 -75 525 192 
Q 231 459 231 875 
Q 231 1119 342 1320 
Q 453 1522 633 1644 
Q 813 1766 1038 1828 
Q 1203 1872 1538 1913 
Q 2219 1994 2541 2106 
Q 2544 2222 2544 2253 
Q 2544 2597 2384 2738 
Q 2169 2928 1744 2928 
Q 1347 2928 1158 2789 
Q 969 2650 878 2297 
L 328 2372 
Q 403 2725 575 2942 
Q 747 3159 1072 3276 
Q 1397 3394 1825 3394 
Q 2250 3394 2515 3294 
Q 2781 3194 2906 3042 
Q 3031 2891 3081 2659 
Q 3109 2516 3109 2141 
L 3109 1391 
Q 3109 606 3145 398 
Q 3181 191 3288 0 
L 2700 0 
Q 2613 175 2588 409 
z
M 2541 1666 
Q 2234 1541 1622 1453 
Q 1275 1403 1131 1340 
Q 988 1278 909 1158 
Q 831 1038 831 891 
Q 831 666 1001 516 
Q 1172 366 1500 366 
Q 1825 366 2078 508 
Q 2331 650 2450 897 
Q 2541 1088 2541 1459 
L 2541 1666 
z
" transform="scale(0.015625)"/>
       <path id="ArialMT-74" d="M 1650 503 
L 1731 6 
Q 1494 -44 1306 -44 
Q 1000 -44 831 53 
Q 663 150 594 308 
Q 525 466 525 972 
L 525 2881 
L 113 2881 
L 113 3319 
L 525 3319 
L 525 4141 
L 1084 4478 
L 1084 3319 
L 1650 3319 
L 1650 2881 
L 1084 2881 
L 1084 941 
Q 1084 700 1114 631 
Q 1144 563 1211 522 
Q 1278 481 1403 481 
Q 1497 481 1650 503 
z
" transform="scale(0.015625)"/>
       <path id="ArialMT-6b" d="M 425 0 
L 425 4581 
L 988 4581 
L 988 1969 
L 2319 3319 
L 3047 3319 
L 1778 2088 
L 3175 0 
L 2481 0 
L 1384 1697 
L 988 1316 
L 988 0 
L 425 0 
z
" transform="scale(0.015625)"/>
       <path id="ArialMT-7a" d="M 125 0 
L 125 456 
L 2238 2881 
Q 1878 2863 1603 2863 
L 250 2863 
L 250 3319 
L 2963 3319 
L 2963 2947 
L 1166 841 
L 819 456 
Q 1197 484 1528 484 
L 3063 484 
L 3063 0 
L 125 0 
z
" transform="scale(0.015625)"/>
       <path id="ArialMT-e1" d="M 2588 409 
Q 2275 144 1986 34 
Q 1697 -75 1366 -75 
Q 819 -75 525 192 
Q 231 459 231 875 
Q 231 1119 342 1320 
Q 453 1522 633 1644 
Q 813 1766 1038 1828 
Q 1203 1872 1538 1913 
Q 2219 1994 2541 2106 
Q 2544 2222 2544 2253 
Q 2544 2597 2384 2738 
Q 2169 2928 1744 2928 
Q 1347 2928 1158 2789 
Q 969 2650 878 2297 
L 328 2372 
Q 403 2725 575 2942 
Q 747 3159 1072 3276 
Q 1397 3394 1825 3394 
Q 2250 3394 2515 3294 
Q 2781 3194 2906 3042 
Q 3031 2891 3081 2659 
Q 3109 2516 3109 2141 
L 3109 1391 
Q 3109 606 3145 398 
Q 3181 191 3288 0 
L 2700 0 
Q 2613 175 2588 409 
z
M 2541 1666 
Q 2234 1541 1622 1453 
Q 1275 1403 1131 1340 
Q 988 1278 909 1158 
Q 831 1038 831 891 
Q 831 666 1001 516 
Q 1172 366 1500 366 
Q 1825 366 2078 508 
Q 2331 650 2450 897 
Q 2541 1088 2541 1459 
L 2541 1666 
z
M 1446 3731 
L 1861 4606 
L 2599 4606 
L 1911 3731 
L 1446 3731 
z
" transform="scale(0.015625)"/>
       <path id="ArialMT-6d" d="M 422 0 
L 422 3319 
L 925 3319 
L 925 2853 
Q 1081 3097 1340 3245 
Q 1600 3394 1931 3394 
Q 2300 3394 2536 3241 
Q 2772 3088 2869 2813 
Q 3263 3394 3894 3394 
Q 4388 3394 4653 3120 
Q 4919 2847 4919 2278 
L 4919 0 
L 4359 0 
L 4359 2091 
Q 4359 2428 4304 2576 
Q 4250 2725 4106 2815 
Q 3963 2906 3769 2906 
Q 3419 2906 3187 2673 
Q 2956 2441 2956 1928 
L 2956 0 
L 2394 0 
L 2394 2156 
Q 2394 2531 2256 2718 
Q 2119 2906 1806 2906 
Q 1569 2906 1367 2781 
Q 1166 2656 1075 2415 
Q 984 2175 984 1722 
L 984 0 
L 422 0 
z
" transform="scale(0.015625)"/>
      </defs>
      <use xlink:href="#ArialMT-56"/>
      <use xlink:href="#ArialMT-6f" x="61.199219"/>
      <use xlink:href="#ArialMT-6e" x="116.814453"/>
      <use xlink:href="#ArialMT-61" x="172.429688"/>
      <use xlink:href="#ArialMT-74" x="228.044922"/>
      <use xlink:href="#ArialMT-6f" x="255.828125"/>
      <use xlink:href="#ArialMT-6b" x="311.443359"/>
      <use xlink:href="#ArialMT-20" x="361.443359"/>
      <use xlink:href="#ArialMT-73" x="389.226562"/>
      <use xlink:href="#ArialMT-7a" x="439.226562"/>
      <use xlink:href="#ArialMT-e1" x="489.226562"/>
      <use xlink:href="#ArialMT-6d" x="544.841797"/>
      <use xlink:href="#ArialMT-61" x="628.142578"/>
     </g>
    </g>
   </g>
   <g id="patch_3">
    <path d="M 81.861094 518.2 
L 103.562656 518.2 
L 103.562656 70.082143 
L 81.861094 70.082143 
z
" clip-path="url(#p5e7f8b3a88)" style="fill: #3eb661; opacity: 0.85; stroke: #000000; stroke-width: 0.3; stroke-linejoin: miter"/>
   </g>
   <g id="patch_4">
    <path d="M 104.704844 518.2 
L 126.406406 518.2 
L 126.406406 427.292135 
L 104.704844 427.292135 
z
" clip-path="url(#p5e7f8b3a88)" style="fill: #3eb661; opacity: 0.85; stroke: #000000; stroke-width: 0.3; stroke-linejoin: miter"/>
   </g>
   <g id="patch_5">
    <path d="M 127.548594 518.2 
L 149.250156 518.2 
L 149.250156 457.573771 
L 127.548594 457.573771 
z
" clip-path="url(#p5e7f8b3a88)" style="fill: #3eb661; opacity: 0.85; stroke: #000000; stroke-width: 0.3; stroke-linejoin: miter"/>
   </g>
   <g id="patch_6">
    <path d="M 150.392344 518.2 
L 172.093906 518.2 
L 172.093906 467.205976 
L 150.392344 467.205976 
z
" clip-path="url(#p5e7f8b3a88)" style="fill: #3eb661; opacity: 0.85; stroke: #000000; stroke-width: 0.3; stroke-linejoin: miter"/>
   </g>
   <g id="patch_7">
    <path d="M 173.236094 518.2 
L 194.937656 518.2 
L 194.937656 475.767935 
L 173.236094 475.767935 
z
" clip-path="url(#p5e7f8b3a88)" style="fill: #3eb661; opacity: 0.85; stroke: #000000; stroke-width: 0.3; stroke-linejoin: miter"/>
   </g>
   <g id="patch_8">
    <path d="M 196.079844 518.2 
L 217.781406 518.2 
L 217.781406 478.663892 
L 196.079844 478.663892 
z
" clip-path="url(#p5e7f8b3a88)" style="fill: #3eb661; opacity: 0.85; stroke: #000000; stroke-width: 0.3; stroke-linejoin: miter"/>
   </g>
   <g id="patch_9">
    <path d="M 218.923594 518.2 
L 240.625156 518.2 
L 240.625156 491.003187 
L 218.923594 491.003187 
z
" clip-path="url(#p5e7f8b3a88)" style="fill: #fd8100; opacity: 0.85; stroke: #000000; stroke-width: 0.3; stroke-linejoin: miter"/>
   </g>
   <g id="patch_10">
    <path d="M 241.767344 518.2 
L 263.468906 518.2 
L 263.468906 489.492253 
L 241.767344 489.492253 
z
" clip-path="url(#p5e7f8b3a88)" style="fill: #fd8100; opacity: 0.85; stroke: #000000; stroke-width: 0.3; stroke-linejoin: miter"/>
   </g>
   <g id="patch_11">
    <path d="M 264.611094 518.2 
L 286.312656 518.2 
L 286.312656 494.654611 
L 264.611094 494.654611 
z
" clip-path="url(#p5e7f8b3a88)" style="fill: #fd8100; opacity: 0.85; stroke: #000000; stroke-width: 0.3; stroke-linejoin: miter"/>
   </g>
   <g id="patch_12">
    <path d="M 287.454844 518.2 
L 309.156406 518.2 
L 309.156406 502.524059 
L 287.454844 502.524059 
z
" clip-path="url(#p5e7f8b3a88)" style="fill: #fd8100; opacity: 0.85; stroke: #000000; stroke-width: 0.3; stroke-linejoin: miter"/>
   </g>
   <g id="patch_13">
    <path d="M 310.298594 518.2 
L 332.000156 518.2 
L 332.000156 506.112528 
L 310.298594 506.112528 
z
" clip-path="url(#p5e7f8b3a88)" style="fill: #fd8100; opacity: 0.85; stroke: #000000; stroke-width: 0.3; stroke-linejoin: miter"/>
   </g>
   <g id="patch_14">
    <path d="M 333.142344 518.2 
L 354.843906 518.2 
L 354.843906 507.686417 
L 333.142344 507.686417 
z
" clip-path="url(#p5e7f8b3a88)" style="fill: #fd8100; opacity: 0.85; stroke: #000000; stroke-width: 0.3; stroke-linejoin: miter"/>
   </g>
   <g id="patch_15">
    <path d="M 355.986094 518.2 
L 377.687656 518.2 
L 377.687656 509.63804 
L 355.986094 509.63804 
z
" clip-path="url(#p5e7f8b3a88)" style="fill: #fd8100; opacity: 0.85; stroke: #000000; stroke-width: 0.3; stroke-linejoin: miter"/>
   </g>
   <g id="patch_16">
    <path d="M 378.829844 518.2 
L 400.531406 518.2 
L 400.531406 513.100598 
L 378.829844 513.100598 
z
" clip-path="url(#p5e7f8b3a88)" style="fill: #fd8100; opacity: 0.85; stroke: #000000; stroke-width: 0.3; stroke-linejoin: miter"/>
   </g>
   <g id="patch_17">
    <path d="M 401.673594 518.2 
L 423.375156 518.2 
L 423.375156 511.904441 
L 401.673594 511.904441 
z
" clip-path="url(#p5e7f8b3a88)" style="fill: #fd8100; opacity: 0.85; stroke: #000000; stroke-width: 0.3; stroke-linejoin: miter"/>
   </g>
   <g id="patch_18">
    <path d="M 424.517344 518.2 
L 446.218906 518.2 
L 446.218906 512.848775 
L 424.517344 512.848775 
z
" clip-path="url(#p5e7f8b3a88)" style="fill: #fd8100; opacity: 0.85; stroke: #000000; stroke-width: 0.3; stroke-linejoin: miter"/>
   </g>
   <g id="patch_19">
    <path d="M 447.361094 518.2 
L 469.062656 518.2 
L 469.062656 513.730153 
L 447.361094 513.730153 
z
" clip-path="url(#p5e7f8b3a88)" style="fill: #fd8100; opacity: 0.85; stroke: #000000; stroke-width: 0.3; stroke-linejoin: miter"/>
   </g>
   <g id="patch_20">
    <path d="M 470.204844 518.2 
L 491.906406 518.2 
L 491.906406 513.604242 
L 470.204844 513.604242 
z
" clip-path="url(#p5e7f8b3a88)" style="fill: #fd8100; opacity: 0.85; stroke: #000000; stroke-width: 0.3; stroke-linejoin: miter"/>
   </g>
   <g id="patch_21">
    <path d="M 493.048594 518.2 
L 514.750156 518.2 
L 514.750156 515.366999 
L 493.048594 515.366999 
z
" clip-path="url(#p5e7f8b3a88)" style="fill: #fd8100; opacity: 0.85; stroke: #000000; stroke-width: 0.3; stroke-linejoin: miter"/>
   </g>
   <g id="patch_22">
    <path d="M 515.892344 518.2 
L 537.593906 518.2 
L 537.593906 515.555865 
L 515.892344 515.555865 
z
" clip-path="url(#p5e7f8b3a88)" style="fill: #fd8100; opacity: 0.85; stroke: #000000; stroke-width: 0.3; stroke-linejoin: miter"/>
   </g>
   <g id="patch_23">
    <path d="M 538.736094 518.2 
L 560.437656 518.2 
L 560.437656 515.241087 
L 538.736094 515.241087 
z
" clip-path="url(#p5e7f8b3a88)" style="fill: #ff0000; opacity: 0.85; stroke: #000000; stroke-width: 0.3; stroke-linejoin: miter"/>
   </g>
   <g id="patch_24">
    <path d="M 561.579844 518.2 
L 583.281406 518.2 
L 583.281406 516.62611 
L 561.579844 516.62611 
z
" clip-path="url(#p5e7f8b3a88)" style="fill: #ff0000; opacity: 0.85; stroke: #000000; stroke-width: 0.3; stroke-linejoin: miter"/>
   </g>
   <g id="patch_25">
    <path d="M 584.423594 518.2 
L 606.125156 518.2 
L 606.125156 515.996555 
L 584.423594 515.996555 
z
" clip-path="url(#p5e7f8b3a88)" style="fill: #ff0000; opacity: 0.85; stroke: #000000; stroke-width: 0.3; stroke-linejoin: miter"/>
   </g>
   <g id="patch_26">
    <path d="M 607.267344 518.2 
L 628.968906 518.2 
L 628.968906 516.311332 
L 607.267344 516.311332 
z
" clip-path="url(#p5e7f8b3a88)" style="fill: #ff0000; opacity: 0.85; stroke: #000000; stroke-width: 0.3; stroke-linejoin: miter"/>
   </g>
   <g id="patch_27">
    <path d="M 630.111094 518.2 
L 651.812656 518.2 
L 651.812656 516.437244 
L 630.111094 516.437244 
z
" clip-path="url(#p5e7f8b3a88)" style="fill: #ff0000; opacity: 0.85; stroke: #000000; stroke-width: 0.3; stroke-linejoin: miter"/>
   </g>
   <g id="patch_28">
    <path d="M 652.954844 518.2 
L 674.656406 518.2 
L 674.656406 516.689066 
L 652.954844 516.689066 
z
" clip-path="url(#p5e7f8b3a88)" style="fill: #ff0000; opacity: 0.85; stroke: #000000; stroke-width: 0.3; stroke-linejoin: miter"/>
   </g>
   <g id="patch_29">
    <path d="M 675.798594 518.2 
L 697.500156 518.2 
L 697.500156 516.940888 
L 675.798594 516.940888 
z
" clip-path="url(#p5e7f8b3a88)" style="fill: #ff0000; opacity: 0.85; stroke: #000000; stroke-width: 0.3; stroke-linejoin: miter"/>
   </g>
   <g id="patch_30">
    <path d="M 698.642344 518.2 
L 720.343906 518.2 
L 720.343906 516.62611 
L 698.642344 516.62611 
z
" clip-path="url(#p5e7f8b3a88)" style="fill: #ff0000; opacity: 0.85; stroke: #000000; stroke-width: 0.3; stroke-linejoin: miter"/>
   </g>
   <g id="patch_31">
    <path d="M 721.486094 518.2 
L 743.187656 518.2 
L 743.187656 517.129755 
L 721.486094 517.129755 
z
" clip-path="url(#p5e7f8b3a88)" style="fill: #ff0000; opacity: 0.85; stroke: #000000; stroke-width: 0.3; stroke-linejoin: miter"/>
   </g>
   <g id="patch_32">
    <path d="M 744.329844 518.2 
L 766.031406 518.2 
L 766.031406 517.003844 
L 744.329844 517.003844 
z
" clip-path="url(#p5e7f8b3a88)" style="fill: #ff0000; opacity: 0.85; stroke: #000000; stroke-width: 0.3; stroke-linejoin: miter"/>
   </g>
   <g id="patch_33">
    <path d="M 767.173594 518.2 
L 788.875156 518.2 
L 788.875156 517.255666 
L 767.173594 517.255666 
z
" clip-path="url(#p5e7f8b3a88)" style="fill: #ff0000; opacity: 0.85; stroke: #000000; stroke-width: 0.3; stroke-linejoin: miter"/>
   </g>
   <g id="patch_34">
    <path d="M 790.017344 518.2 
L 811.718906 518.2 
L 811.718906 517.6334 
L 790.017344 517.6334 
z
" clip-path="url(#p5e7f8b3a88)" style="fill: #ff0000; opacity: 0.85; stroke: #000000; stroke-width: 0.3; stroke-linejoin: miter"/>
   </g>
   <g id="patch_35">
    <path d="M 812.861094 518.2 
L 834.562656 518.2 
L 834.562656 517.381577 
L 812.861094 517.381577 
z
" clip-path="url(#p5e7f8b3a88)" style="fill: #ff0000; opacity: 0.85; stroke: #000000; stroke-width: 0.3; stroke-linejoin: miter"/>
   </g>
   <g id="patch_36">
    <path d="M 835.704844 518.2 
L 857.406406 518.2 
L 857.406406 517.129755 
L 835.704844 517.129755 
z
" clip-path="url(#p5e7f8b3a88)" style="fill: #ff0000; opacity: 0.85; stroke: #000000; stroke-width: 0.3; stroke-linejoin: miter"/>
   </g>
   <g id="patch_37">
    <path d="M 858.548594 518.2 
L 880.250156 518.2 
L 880.250156 517.507489 
L 858.548594 517.507489 
z
" clip-path="url(#p5e7f8b3a88)" style="fill: #ff0000; opacity: 0.85; stroke: #000000; stroke-width: 0.3; stroke-linejoin: miter"/>
   </g>
   <g id="patch_38">
    <path d="M 881.392344 518.2 
L 903.093906 518.2 
L 903.093906 517.696355 
L 881.392344 517.696355 
z
" clip-path="url(#p5e7f8b3a88)" style="fill: #ff0000; opacity: 0.85; stroke: #000000; stroke-width: 0.3; stroke-linejoin: miter"/>
   </g>
   <g id="patch_39">
    <path d="M 904.236094 518.2 
L 925.937656 518.2 
L 925.937656 517.696355 
L 904.236094 517.696355 
z
" clip-path="url(#p5e7f8b3a88)" style="fill: #ff0000; opacity: 0.85; stroke: #000000; stroke-width: 0.3; stroke-linejoin: miter"/>
   </g>
   <g id="patch_40">
    <path d="M 927.079844 518.2 
L 948.781406 518.2 
L 948.781406 517.570444 
L 927.079844 517.570444 
z
" clip-path="url(#p5e7f8b3a88)" style="fill: #ff0000; opacity: 0.85; stroke: #000000; stroke-width: 0.3; stroke-linejoin: miter"/>
   </g>
   <g id="patch_41">
    <path d="M 949.923594 518.2 
L 971.625156 518.2 
L 971.625156 517.759311 
L 949.923594 517.759311 
z
" clip-path="url(#p5e7f8b3a88)" style="fill: #ff0000; opacity: 0.85; stroke: #000000; stroke-width: 0.3; stroke-linejoin: miter"/>
   </g>
   <g id="patch_42">
    <path d="M 972.767344 518.2 
L 994.468906 518.2 
L 994.468906 512.093308 
L 972.767344 512.093308 
z
" clip-path="url(#p5e7f8b3a88)" style="fill: #ff0000; opacity: 0.85; stroke: #000000; stroke-width: 0.3; stroke-linejoin: miter"/>
   </g>
   <g id="patch_43">
    <path d="M 81.29 518.2 
L 81.29 47.67625 
" style="fill: none"/>
   </g>
   <g id="patch_44">
    <path d="M 995.04 518.2 
L 995.04 47.67625 
" style="fill: none"/>
   </g>
   <g id="patch_45">
    <path d="M 81.29 518.2 
L 995.04 518.2 
" style="fill: none"/>
   </g>
   <g id="patch_46">
    <path d="M 81.29 47.67625 
L 995.04 47.67625 
" style="fill: none"/>
   </g>
   <g id="text_51">
    <!-- 7118 -->
    <g style="fill: #262626" transform="translate(81.865 67.660587) scale(0.1 -0.1)">
     <use xlink:href="#Arial-BoldMT-37"/>
     <use xlink:href="#Arial-BoldMT-31" x="55.615234"/>
     <use xlink:href="#Arial-BoldMT-31" x="105.730469"/>
     <use xlink:href="#Arial-BoldMT-38" x="161.345703"/>
    </g>
   </g>
   <g id="text_52">
    <!-- 1444 -->
    <g style="fill: #262626" transform="translate(104.43375 424.870579) scale(0.1 -0.1)">
     <use xlink:href="#Arial-BoldMT-31"/>
     <use xlink:href="#Arial-BoldMT-34" x="55.615234"/>
     <use xlink:href="#Arial-BoldMT-34" x="111.230469"/>
     <use xlink:href="#Arial-BoldMT-34" x="166.845703"/>
    </g>
   </g>
   <g id="text_53">
    <!-- 963 -->
    <g style="fill: #262626" transform="translate(130.057969 455.152216) scale(0.1 -0.1)">
     <use xlink:href="#Arial-BoldMT-39"/>
     <use xlink:href="#Arial-BoldMT-36" x="55.615234"/>
     <use xlink:href="#Arial-BoldMT-33" x="111.230469"/>
    </g>
   </g>
   <g id="text_54">
    <!-- 810 -->
    <g style="fill: #262626" transform="translate(152.901719 464.78442) scale(0.1 -0.1)">
     <use xlink:href="#Arial-BoldMT-38"/>
     <use xlink:href="#Arial-BoldMT-31" x="55.615234"/>
     <use xlink:href="#Arial-BoldMT-30" x="111.230469"/>
    </g>
   </g>
   <g id="text_55">
    <!-- 674 -->
    <g style="fill: #262626" transform="translate(175.745469 473.34638) scale(0.1 -0.1)">
     <use xlink:href="#Arial-BoldMT-36"/>
     <use xlink:href="#Arial-BoldMT-37" x="55.615234"/>
     <use xlink:href="#Arial-BoldMT-34" x="111.230469"/>
    </g>
   </g>
   <g id="text_56">
    <!-- 628 -->
    <g style="fill: #262626" transform="translate(198.589219 476.242337) scale(0.1 -0.1)">
     <use xlink:href="#Arial-BoldMT-36"/>
     <use xlink:href="#Arial-BoldMT-32" x="55.615234"/>
     <use xlink:href="#Arial-BoldMT-38" x="111.230469"/>
    </g>
   </g>
   <g id="text_57">
    <!-- 432 -->
    <g style="fill: #262626" transform="translate(221.432969 488.581632) scale(0.1 -0.1)">
     <use xlink:href="#Arial-BoldMT-34"/>
     <use xlink:href="#Arial-BoldMT-33" x="55.615234"/>
     <use xlink:href="#Arial-BoldMT-32" x="111.230469"/>
    </g>
   </g>
   <g id="text_58">
    <!-- 456 -->
    <g style="fill: #262626" transform="translate(244.276719 487.070698) scale(0.1 -0.1)">
     <use xlink:href="#Arial-BoldMT-34"/>
     <use xlink:href="#Arial-BoldMT-35" x="55.615234"/>
     <use xlink:href="#Arial-BoldMT-36" x="111.230469"/>
    </g>
   </g>
   <g id="text_59">
    <!-- 374 -->
    <g style="fill: #262626" transform="translate(267.120469 492.233056) scale(0.1 -0.1)">
     <use xlink:href="#Arial-BoldMT-33"/>
     <use xlink:href="#Arial-BoldMT-37" x="55.615234"/>
     <use xlink:href="#Arial-BoldMT-34" x="111.230469"/>
    </g>
   </g>
   <g id="text_60">
    <!-- 249 -->
    <g style="fill: #262626" transform="translate(289.964219 500.102504) scale(0.1 -0.1)">
     <use xlink:href="#Arial-BoldMT-32"/>
     <use xlink:href="#Arial-BoldMT-34" x="55.615234"/>
     <use xlink:href="#Arial-BoldMT-39" x="111.230469"/>
    </g>
   </g>
   <g id="text_61">
    <!-- 192 -->
    <g style="fill: #262626" transform="translate(312.807969 503.690972) scale(0.1 -0.1)">
     <use xlink:href="#Arial-BoldMT-31"/>
     <use xlink:href="#Arial-BoldMT-39" x="55.615234"/>
     <use xlink:href="#Arial-BoldMT-32" x="111.230469"/>
    </g>
   </g>
   <g id="text_62">
    <!-- 167 -->
    <g style="fill: #262626" transform="translate(335.651719 505.264862) scale(0.1 -0.1)">
     <use xlink:href="#Arial-BoldMT-31"/>
     <use xlink:href="#Arial-BoldMT-36" x="55.615234"/>
     <use xlink:href="#Arial-BoldMT-37" x="111.230469"/>
    </g>
   </g>
   <g id="text_63">
    <!-- 136 -->
    <g style="fill: #262626" transform="translate(358.495469 507.216485) scale(0.1 -0.1)">
     <use xlink:href="#Arial-BoldMT-31"/>
     <use xlink:href="#Arial-BoldMT-33" x="55.615234"/>
     <use xlink:href="#Arial-BoldMT-36" x="111.230469"/>
    </g>
   </g>
   <g id="text_64">
    <!-- 81 -->
    <g style="fill: #262626" transform="translate(384.119687 510.679042) scale(0.1 -0.1)">
     <use xlink:href="#Arial-BoldMT-38"/>
     <use xlink:href="#Arial-BoldMT-31" x="55.615234"/>
    </g>
   </g>
   <g id="text_65">
    <!-- 100 -->
    <g style="fill: #262626" transform="translate(404.182969 509.482886) scale(0.1 -0.1)">
     <use xlink:href="#Arial-BoldMT-31"/>
     <use xlink:href="#Arial-BoldMT-30" x="55.615234"/>
     <use xlink:href="#Arial-BoldMT-30" x="111.230469"/>
    </g>
   </g>
   <g id="text_66">
    <!-- 85 -->
    <g style="fill: #262626" transform="translate(429.807187 510.42722) scale(0.1 -0.1)">
     <use xlink:href="#Arial-BoldMT-38"/>
     <use xlink:href="#Arial-BoldMT-35" x="55.615234"/>
    </g>
   </g>
   <g id="text_67">
    <!-- 71 -->
    <g style="fill: #262626" transform="translate(452.650937 511.308598) scale(0.1 -0.1)">
     <use xlink:href="#Arial-BoldMT-37"/>
     <use xlink:href="#Arial-BoldMT-31" x="55.615234"/>
    </g>
   </g>
   <g id="text_68">
    <!-- 73 -->
    <g style="fill: #262626" transform="translate(475.494687 511.182687) scale(0.1 -0.1)">
     <use xlink:href="#Arial-BoldMT-37"/>
     <use xlink:href="#Arial-BoldMT-33" x="55.615234"/>
    </g>
   </g>
   <g id="text_69">
    <!-- 45 -->
    <g style="fill: #262626" transform="translate(498.338437 512.945443) scale(0.1 -0.1)">
     <use xlink:href="#Arial-BoldMT-34"/>
     <use xlink:href="#Arial-BoldMT-35" x="55.615234"/>
    </g>
   </g>
   <g id="text_70">
    <!-- 42 -->
    <g style="fill: #262626" transform="translate(521.182187 513.13431) scale(0.1 -0.1)">
     <use xlink:href="#Arial-BoldMT-34"/>
     <use xlink:href="#Arial-BoldMT-32" x="55.615234"/>
    </g>
   </g>
   <g id="text_71">
    <!-- 47 -->
    <g style="fill: #262626" transform="translate(544.025937 512.819532) scale(0.1 -0.1)">
     <use xlink:href="#Arial-BoldMT-34"/>
     <use xlink:href="#Arial-BoldMT-37" x="55.615234"/>
    </g>
   </g>
   <g id="text_72">
    <!-- 25 -->
    <g style="fill: #262626" transform="translate(566.869687 514.204555) scale(0.1 -0.1)">
     <use xlink:href="#Arial-BoldMT-32"/>
     <use xlink:href="#Arial-BoldMT-35" x="55.615234"/>
    </g>
   </g>
   <g id="text_73">
    <!-- 35 -->
    <g style="fill: #262626" transform="translate(589.713437 513.574999) scale(0.1 -0.1)">
     <use xlink:href="#Arial-BoldMT-33"/>
     <use xlink:href="#Arial-BoldMT-35" x="55.615234"/>
    </g>
   </g>
   <g id="text_74">
    <!-- 30 -->
    <g style="fill: #262626" transform="translate(612.557187 513.889777) scale(0.1 -0.1)">
     <use xlink:href="#Arial-BoldMT-33"/>
     <use xlink:href="#Arial-BoldMT-30" x="55.615234"/>
    </g>
   </g>
   <g id="text_75">
    <!-- 28 -->
    <g style="fill: #262626" transform="translate(635.400937 514.015688) scale(0.1 -0.1)">
     <use xlink:href="#Arial-BoldMT-32"/>
     <use xlink:href="#Arial-BoldMT-38" x="55.615234"/>
    </g>
   </g>
   <g id="text_76">
    <!-- 24 -->
    <g style="fill: #262626" transform="translate(658.244687 514.267511) scale(0.1 -0.1)">
     <use xlink:href="#Arial-BoldMT-32"/>
     <use xlink:href="#Arial-BoldMT-34" x="55.615234"/>
    </g>
   </g>
   <g id="text_77">
    <!-- 20 -->
    <g style="fill: #262626" transform="translate(681.088437 514.519333) scale(0.1 -0.1)">
     <use xlink:href="#Arial-BoldMT-32"/>
     <use xlink:href="#Arial-BoldMT-30" x="55.615234"/>
    </g>
   </g>
   <g id="text_78">
    <!-- 25 -->
    <g style="fill: #262626" transform="translate(703.932187 514.204555) scale(0.1 -0.1)">
     <use xlink:href="#Arial-BoldMT-32"/>
     <use xlink:href="#Arial-BoldMT-35" x="55.615234"/>
    </g>
   </g>
   <g id="text_79">
    <!-- 17 -->
    <g style="fill: #262626" transform="translate(726.775937 514.7082) scale(0.1 -0.1)">
     <use xlink:href="#Arial-BoldMT-31"/>
     <use xlink:href="#Arial-BoldMT-37" x="55.615234"/>
    </g>
   </g>
   <g id="text_80">
    <!-- 19 -->
    <g style="fill: #262626" transform="translate(749.619687 514.582289) scale(0.1 -0.1)">
     <use xlink:href="#Arial-BoldMT-31"/>
     <use xlink:href="#Arial-BoldMT-39" x="55.615234"/>
    </g>
   </g>
   <g id="text_81">
    <!-- 15 -->
    <g style="fill: #262626" transform="translate(772.463437 514.834111) scale(0.1 -0.1)">
     <use xlink:href="#Arial-BoldMT-31"/>
     <use xlink:href="#Arial-BoldMT-35" x="55.615234"/>
    </g>
   </g>
   <g id="text_82">
    <!-- 9 -->
    <g style="fill: #262626" transform="translate(798.087656 515.211844) scale(0.1 -0.1)">
     <use xlink:href="#Arial-BoldMT-39"/>
    </g>
   </g>
   <g id="text_83">
    <!-- 13 -->
    <g style="fill: #262626" transform="translate(818.150937 514.960022) scale(0.1 -0.1)">
     <use xlink:href="#Arial-BoldMT-31"/>
     <use xlink:href="#Arial-BoldMT-33" x="55.615234"/>
    </g>
   </g>
   <g id="text_84">
    <!-- 17 -->
    <g style="fill: #262626" transform="translate(840.994687 514.7082) scale(0.1 -0.1)">
     <use xlink:href="#Arial-BoldMT-31"/>
     <use xlink:href="#Arial-BoldMT-37" x="55.615234"/>
    </g>
   </g>
   <g id="text_85">
    <!-- 11 -->
    <g style="fill: #262626" transform="translate(864.113437 515.085933) scale(0.1 -0.1)">
     <use xlink:href="#Arial-BoldMT-31"/>
     <use xlink:href="#Arial-BoldMT-31" x="50.115234"/>
    </g>
   </g>
   <g id="text_86">
    <!-- 8 -->
    <g style="fill: #262626" transform="translate(889.462656 515.2748) scale(0.1 -0.1)">
     <use xlink:href="#Arial-BoldMT-38"/>
    </g>
   </g>
   <g id="text_87">
    <!-- 8 -->
    <g style="fill: #262626" transform="translate(912.306406 515.2748) scale(0.1 -0.1)">
     <use xlink:href="#Arial-BoldMT-38"/>
    </g>
   </g>
   <g id="text_88">
    <!-- 10 -->
    <g style="fill: #262626" transform="translate(932.369687 515.148889) scale(0.1 -0.1)">
     <use xlink:href="#Arial-BoldMT-31"/>
     <use xlink:href="#Arial-BoldMT-30" x="55.615234"/>
    </g>
   </g>
   <g id="text_89">
    <!-- 7 -->
    <g style="fill: #262626" transform="translate(957.993906 515.337756) scale(0.1 -0.1)">
     <use xlink:href="#Arial-BoldMT-37"/>
    </g>
   </g>
   <g id="text_90">
    <!-- 97 -->
    <g style="fill: #262626" transform="translate(978.057187 509.671753) scale(0.1 -0.1)">
     <use xlink:href="#Arial-BoldMT-39"/>
     <use xlink:href="#Arial-BoldMT-37" x="55.615234"/>
    </g>
   </g>
   <g id="text_91">
    <!-- MÁV vonat késés eloszlás, 14605 vonatra -->
    <g style="fill: #262626" transform="translate(263.491562 37.67625) scale(0.28 -0.28)">
     <defs>
      <path id="Arial-BoldMT-4d" d="M 453 0 
L 453 4581 
L 1838 4581 
L 2669 1456 
L 3491 4581 
L 4878 4581 
L 4878 0 
L 4019 0 
L 4019 3606 
L 3109 0 
L 2219 0 
L 1313 3606 
L 1313 0 
L 453 0 
z
" transform="scale(0.015625)"/>
      <path id="Arial-BoldMT-c1" d="M 4597 0 
L 3591 0 
L 3191 1041 
L 1359 1041 
L 981 0 
L 0 0 
L 1784 4581 
L 2763 4581 
L 4597 0 
z
M 2894 1813 
L 2263 3513 
L 1644 1813 
L 2894 1813 
z
M 1728 4813 
L 2160 5747 
L 3144 5747 
L 2285 4813 
L 1728 4813 
z
" transform="scale(0.015625)"/>
      <path id="Arial-BoldMT-56" d="M 1634 0 
L -3 4581 
L 1000 4581 
L 2159 1191 
L 3281 4581 
L 4263 4581 
L 2622 0 
L 1634 0 
z
" transform="scale(0.015625)"/>
      <path id="Arial-BoldMT-20" transform="scale(0.015625)"/>
      <path id="Arial-BoldMT-76" d="M 1372 0 
L 34 3319 
L 956 3319 
L 1581 1625 
L 1763 1059 
Q 1834 1275 1853 1344 
Q 1897 1484 1947 1625 
L 2578 3319 
L 3481 3319 
L 2163 0 
L 1372 0 
z
" transform="scale(0.015625)"/>
      <path id="Arial-BoldMT-6f" d="M 256 1706 
Q 256 2144 472 2553 
Q 688 2963 1083 3178 
Q 1478 3394 1966 3394 
Q 2719 3394 3200 2905 
Q 3681 2416 3681 1669 
Q 3681 916 3195 420 
Q 2709 -75 1972 -75 
Q 1516 -75 1102 131 
Q 688 338 472 736 
Q 256 1134 256 1706 
z
M 1156 1659 
Q 1156 1166 1390 903 
Q 1625 641 1969 641 
Q 2313 641 2545 903 
Q 2778 1166 2778 1666 
Q 2778 2153 2545 2415 
Q 2313 2678 1969 2678 
Q 1625 2678 1390 2415 
Q 1156 2153 1156 1659 
z
" transform="scale(0.015625)"/>
      <path id="Arial-BoldMT-6e" d="M 3478 0 
L 2600 0 
L 2600 1694 
Q 2600 2231 2544 2389 
Q 2488 2547 2361 2634 
Q 2234 2722 2056 2722 
Q 1828 2722 1647 2597 
Q 1466 2472 1398 2265 
Q 1331 2059 1331 1503 
L 1331 0 
L 453 0 
L 453 3319 
L 1269 3319 
L 1269 2831 
Q 1703 3394 2363 3394 
Q 2653 3394 2893 3289 
Q 3134 3184 3257 3021 
Q 3381 2859 3429 2653 
Q 3478 2447 3478 2063 
L 3478 0 
z
" transform="scale(0.015625)"/>
      <path id="Arial-BoldMT-61" d="M 1116 2306 
L 319 2450 
Q 453 2931 781 3162 
Q 1109 3394 1756 3394 
Q 2344 3394 2631 3255 
Q 2919 3116 3036 2902 
Q 3153 2688 3153 2116 
L 3144 1091 
Q 3144 653 3186 445 
Q 3228 238 3344 0 
L 2475 0 
Q 2441 88 2391 259 
Q 2369 338 2359 363 
Q 2134 144 1878 34 
Q 1622 -75 1331 -75 
Q 819 -75 523 203 
Q 228 481 228 906 
Q 228 1188 362 1408 
Q 497 1628 739 1745 
Q 981 1863 1438 1950 
Q 2053 2066 2291 2166 
L 2291 2253 
Q 2291 2506 2166 2614 
Q 2041 2722 1694 2722 
Q 1459 2722 1328 2630 
Q 1197 2538 1116 2306 
z
M 2291 1594 
Q 2122 1538 1756 1459 
Q 1391 1381 1278 1306 
Q 1106 1184 1106 997 
Q 1106 813 1243 678 
Q 1381 544 1594 544 
Q 1831 544 2047 700 
Q 2206 819 2256 991 
Q 2291 1103 2291 1419 
L 2291 1594 
z
" transform="scale(0.015625)"/>
      <path id="Arial-BoldMT-74" d="M 1981 3319 
L 1981 2619 
L 1381 2619 
L 1381 1281 
Q 1381 875 1398 808 
Q 1416 741 1477 697 
Q 1538 653 1625 653 
Q 1747 653 1978 738 
L 2053 56 
Q 1747 -75 1359 -75 
Q 1122 -75 931 4 
Q 741 84 652 211 
Q 563 338 528 553 
Q 500 706 500 1172 
L 500 2619 
L 97 2619 
L 97 3319 
L 500 3319 
L 500 3978 
L 1381 4491 
L 1381 3319 
L 1981 3319 
z
" transform="scale(0.015625)"/>
      <path id="Arial-BoldMT-6b" d="M 428 0 
L 428 4581 
L 1306 4581 
L 1306 2150 
L 2334 3319 
L 3416 3319 
L 2281 2106 
L 3497 0 
L 2550 0 
L 1716 1491 
L 1306 1063 
L 1306 0 
L 428 0 
z
" transform="scale(0.015625)"/>
      <path id="Arial-BoldMT-e9" d="M 2381 1056 
L 3256 909 
Q 3088 428 2723 176 
Q 2359 -75 1813 -75 
Q 947 -75 531 491 
Q 203 944 203 1634 
Q 203 2459 634 2926 
Q 1066 3394 1725 3394 
Q 2466 3394 2894 2905 
Q 3322 2416 3303 1406 
L 1103 1406 
Q 1113 1016 1316 798 
Q 1519 581 1822 581 
Q 2028 581 2168 693 
Q 2309 806 2381 1056 
z
M 2431 1944 
Q 2422 2325 2234 2523 
Q 2047 2722 1778 2722 
Q 1491 2722 1303 2513 
Q 1116 2303 1119 1944 
L 2431 1944 
z
M 1312 3725 
L 1744 4659 
L 2728 4659 
L 1869 3725 
L 1312 3725 
z
" transform="scale(0.015625)"/>
      <path id="Arial-BoldMT-73" d="M 150 947 
L 1031 1081 
Q 1088 825 1259 692 
Q 1431 559 1741 559 
Q 2081 559 2253 684 
Q 2369 772 2369 919 
Q 2369 1019 2306 1084 
Q 2241 1147 2013 1200 
Q 950 1434 666 1628 
Q 272 1897 272 2375 
Q 272 2806 612 3100 
Q 953 3394 1669 3394 
Q 2350 3394 2681 3172 
Q 3013 2950 3138 2516 
L 2309 2363 
Q 2256 2556 2107 2659 
Q 1959 2763 1684 2763 
Q 1338 2763 1188 2666 
Q 1088 2597 1088 2488 
Q 1088 2394 1175 2328 
Q 1294 2241 1995 2081 
Q 2697 1922 2975 1691 
Q 3250 1456 3250 1038 
Q 3250 581 2869 253 
Q 2488 -75 1741 -75 
Q 1063 -75 667 200 
Q 272 475 150 947 
z
" transform="scale(0.015625)"/>
      <path id="Arial-BoldMT-65" d="M 2381 1056 
L 3256 909 
Q 3088 428 2723 176 
Q 2359 -75 1813 -75 
Q 947 -75 531 491 
Q 203 944 203 1634 
Q 203 2459 634 2926 
Q 1066 3394 1725 3394 
Q 2466 3394 2894 2905 
Q 3322 2416 3303 1406 
L 1103 1406 
Q 1113 1016 1316 798 
Q 1519 581 1822 581 
Q 2028 581 2168 693 
Q 2309 806 2381 1056 
z
M 2431 1944 
Q 2422 2325 2234 2523 
Q 2047 2722 1778 2722 
Q 1491 2722 1303 2513 
Q 1116 2303 1119 1944 
L 2431 1944 
z
" transform="scale(0.015625)"/>
      <path id="Arial-BoldMT-6c" d="M 459 0 
L 459 4581 
L 1338 4581 
L 1338 0 
L 459 0 
z
" transform="scale(0.015625)"/>
      <path id="Arial-BoldMT-7a" d="M 106 0 
L 106 684 
L 1350 2113 
Q 1656 2463 1803 2609 
Q 1650 2600 1400 2597 
L 228 2591 
L 228 3319 
L 2972 3319 
L 2972 2697 
L 1703 1234 
L 1256 750 
Q 1622 772 1709 772 
L 3069 772 
L 3069 0 
L 106 0 
z
" transform="scale(0.015625)"/>
      <path id="Arial-BoldMT-e1" d="M 1116 2306 
L 319 2450 
Q 453 2931 781 3162 
Q 1109 3394 1756 3394 
Q 2344 3394 2631 3255 
Q 2919 3116 3036 2902 
Q 3153 2688 3153 2116 
L 3144 1091 
Q 3144 653 3186 445 
Q 3228 238 3344 0 
L 2475 0 
Q 2441 88 2391 259 
Q 2369 338 2359 363 
Q 2134 144 1878 34 
Q 1622 -75 1331 -75 
Q 819 -75 523 203 
Q 228 481 228 906 
Q 228 1188 362 1408 
Q 497 1628 739 1745 
Q 981 1863 1438 1950 
Q 2053 2066 2291 2166 
L 2291 2253 
Q 2291 2506 2166 2614 
Q 2041 2722 1694 2722 
Q 1459 2722 1328 2630 
Q 1197 2538 1116 2306 
z
M 2291 1594 
Q 2122 1538 1756 1459 
Q 1391 1381 1278 1306 
Q 1106 1184 1106 997 
Q 1106 813 1243 678 
Q 1381 544 1594 544 
Q 1831 544 2047 700 
Q 2206 819 2256 991 
Q 2291 1103 2291 1419 
L 2291 1594 
z
M 1344 3725 
L 1776 4659 
L 2760 4659 
L 1901 3725 
L 1344 3725 
z
" transform="scale(0.015625)"/>
      <path id="Arial-BoldMT-2c" d="M 438 878 
L 1316 878 
L 1316 250 
Q 1316 -131 1250 -351 
Q 1184 -572 1001 -747 
Q 819 -922 538 -1022 
L 366 -659 
Q 631 -572 743 -419 
Q 856 -266 863 0 
L 438 0 
L 438 878 
z
" transform="scale(0.015625)"/>
      <path id="Arial-BoldMT-72" d="M 1300 0 
L 422 0 
L 422 3319 
L 1238 3319 
L 1238 2847 
Q 1447 3181 1614 3287 
Q 1781 3394 1994 3394 
Q 2294 3394 2572 3228 
L 2300 2463 
Q 2078 2606 1888 2606 
Q 1703 2606 1575 2504 
Q 1447 2403 1373 2137 
Q 1300 1872 1300 1025 
L 1300 0 
z
" transform="scale(0.015625)"/>
     </defs>
     <use xlink:href="#Arial-BoldMT-4d"/>
     <use xlink:href="#Arial-BoldMT-c1" x="83.300781"/>
     <use xlink:href="#Arial-BoldMT-56" x="155.517578"/>
     <use xlink:href="#Arial-BoldMT-20" x="222.216797"/>
     <use xlink:href="#Arial-BoldMT-76" x="250"/>
     <use xlink:href="#Arial-BoldMT-6f" x="305.615234"/>
     <use xlink:href="#Arial-BoldMT-6e" x="366.699219"/>
     <use xlink:href="#Arial-BoldMT-61" x="427.783203"/>
     <use xlink:href="#Arial-BoldMT-74" x="483.398438"/>
     <use xlink:href="#Arial-BoldMT-20" x="516.699219"/>
     <use xlink:href="#Arial-BoldMT-6b" x="544.482422"/>
     <use xlink:href="#Arial-BoldMT-e9" x="600.097656"/>
     <use xlink:href="#Arial-BoldMT-73" x="655.712891"/>
     <use xlink:href="#Arial-BoldMT-e9" x="711.328125"/>
     <use xlink:href="#Arial-BoldMT-73" x="766.943359"/>
     <use xlink:href="#Arial-BoldMT-20" x="822.558594"/>
     <use xlink:href="#Arial-BoldMT-65" x="850.341797"/>
     <use xlink:href="#Arial-BoldMT-6c" x="905.957031"/>
     <use xlink:href="#Arial-BoldMT-6f" x="933.740234"/>
     <use xlink:href="#Arial-BoldMT-73" x="994.824219"/>
     <use xlink:href="#Arial-BoldMT-7a" x="1050.439453"/>
     <use xlink:href="#Arial-BoldMT-6c" x="1100.439453"/>
     <use xlink:href="#Arial-BoldMT-e1" x="1128.222656"/>
     <use xlink:href="#Arial-BoldMT-73" x="1183.837891"/>
     <use xlink:href="#Arial-BoldMT-2c" x="1239.453125"/>
     <use xlink:href="#Arial-BoldMT-20" x="1267.236328"/>
     <use xlink:href="#Arial-BoldMT-31" x="1295.019531"/>
     <use xlink:href="#Arial-BoldMT-34" x="1350.634766"/>
     <use xlink:href="#Arial-BoldMT-36" x="1406.25"/>
     <use xlink:href="#Arial-BoldMT-30" x="1461.865234"/>
     <use xlink:href="#Arial-BoldMT-35" x="1517.480469"/>
     <use xlink:href="#Arial-BoldMT-20" x="1573.095703"/>
     <use xlink:href="#Arial-BoldMT-76" x="1600.878906"/>
     <use xlink:href="#Arial-BoldMT-6f" x="1656.494141"/>
     <use xlink:href="#Arial-BoldMT-6e" x="1717.578125"/>
     <use xlink:href="#Arial-BoldMT-61" x="1778.662109"/>
     <use xlink:href="#Arial-BoldMT-74" x="1834.277344"/>
     <use xlink:href="#Arial-BoldMT-72" x="1867.578125"/>
     <use xlink:href="#Arial-BoldMT-61" x="1906.494141"/>
    </g>
   </g>
  </g>
 </g>
 <defs>
  <clipPath id="p5e7f8b3a88">
   <rect x="81.29" y="47.67625" width="913.75" height="470.52375"/>
  </clipPath>
 </defs>
</svg>
